<svg xmlns="http://www.w3.org/2000/svg" viewBox="0 0 100 100">
  <g fill="none" stroke="#000" stroke-width="3" stroke-linecap="round" stroke-linejoin="round">
    <path d="M14,66 Q14,86 50,86 Q86,86 86,66 Q86,54 72,50 L28,50 Q14,54 14,66 Z"/>
    <circle cx="34" cy="46" r="6.5"/>
    <circle cx="66" cy="46" r="6.5"/>
    <path d="M42,67 L58,67"/>
    <path d="M14,72 Q6,76 12,84"/>
    <path d="M86,72 Q94,76 88,84"/>
  </g>
  <circle cx="34" cy="47" r="2.3" fill="#000"/>
  <circle cx="66" cy="47" r="2.3" fill="#000"/>
  <circle cx="40" cy="60" r="1.4" fill="#000"/>
  <circle cx="50" cy="56" r="1.4" fill="#000"/>
  <circle cx="60" cy="60" r="1.4" fill="#000"/>
  <circle cx="44" cy="72" r="1.4" fill="#000"/>
  <circle cx="56" cy="72" r="1.4" fill="#000"/>
</svg>
